<svg width="20" height="20" viewBox="0 0 20 20" fill="none" xmlns="http://www.w3.org/2000/svg">
<path fill-rule="evenodd" clip-rule="evenodd" d="M10 2.50633C5.86136 2.50633 2.50633 5.86136 2.50633 10C2.50633 14.1386 5.86136 17.4937 10 17.4937C14.1386 17.4937 17.4937 14.1386 17.4937 10C17.4937 5.86136 14.1386 2.50633 10 2.50633ZM1 10C1 5.02944 5.02944 1 10 1C14.9706 1 19 5.02944 19 10C19 14.9706 14.9706 19 10 19C5.02944 19 1 14.9706 1 10Z" fill="black"/>
<path fill-rule="evenodd" clip-rule="evenodd" d="M12.1468 8.16495L11.0294 10.0272C10.9506 10.1585 10.9068 10.2311 10.8707 10.2842C10.8547 10.3078 10.845 10.3204 10.8397 10.3268L10.835 10.3322L10.8343 10.333L10.8335 10.3336L10.8277 10.3379C10.8209 10.3427 10.8076 10.3514 10.7828 10.3656C10.7271 10.3974 10.6514 10.4356 10.5144 10.5041L7.85298 11.8348L8.97031 9.97258C9.04913 9.84122 9.09296 9.76868 9.12899 9.71557C9.145 9.69198 9.15473 9.67938 9.16007 9.67292L9.16473 9.66753L9.16547 9.66678L9.16627 9.66611L9.172 9.66187C9.17885 9.65705 9.19216 9.64831 9.21691 9.63416C9.27262 9.60231 9.34831 9.56417 9.48533 9.49566L12.1468 8.16495ZM13.6356 5.89264C13.8349 5.89216 14.0931 5.95518 14.2962 6.17451C14.4993 6.39383 14.5423 6.65613 14.5266 6.8548C14.5129 7.0269 14.4552 7.17436 14.4138 7.26794C14.3352 7.44569 14.206 7.66088 14.08 7.87069C14.0731 7.88213 14.0663 7.89356 14.0594 7.90496L12.3211 10.8022C12.3114 10.8183 12.3018 10.8345 12.292 10.8508C12.1728 11.0505 12.0445 11.2652 11.8577 11.4382C11.671 11.6112 11.447 11.7226 11.2388 11.8261C11.2217 11.8346 11.2048 11.843 11.1881 11.8514L7.44706 13.7219C7.43517 13.7278 7.42325 13.7338 7.41131 13.7398C7.19246 13.8493 6.96799 13.9616 6.78473 14.0264C6.68825 14.0605 6.5368 14.1067 6.36416 14.1071C6.16487 14.1076 5.90664 14.0446 5.70354 13.8252C5.50043 13.6059 5.45741 13.3436 5.47318 13.145C5.48683 12.9729 5.5445 12.8254 5.58591 12.7318C5.66457 12.5541 5.79377 12.3389 5.91974 12.1291C5.92661 12.1176 5.93347 12.1062 5.94031 12.0948L7.67864 9.19757C7.68829 9.1815 7.69797 9.16529 7.70771 9.14897C7.82696 8.94929 7.95522 8.73451 8.14199 8.56155C8.32876 8.3886 8.55274 8.27719 8.76098 8.17361C8.778 8.16515 8.7949 8.15674 8.81167 8.14835L12.5527 6.27786C12.5646 6.27192 12.5765 6.26595 12.5884 6.25998C12.8073 6.15047 13.0317 6.03816 13.215 5.97336C13.3115 5.93925 13.4629 5.89306 13.6356 5.89264Z" fill="black"/>
</svg>
