<svg width="20" height="20" viewBox="0 0 20 20" fill="none" xmlns="http://www.w3.org/2000/svg">
<path d="M9.00868 6.20654C8.55974 6.20654 8.1958 6.57112 8.1958 7.02084C8.1958 7.47057 8.55974 7.83514 9.00868 7.83514H10.9913C11.4403 7.83514 11.8042 7.47057 11.8042 7.02084C11.8042 6.57112 11.4403 6.20654 10.9913 6.20654H9.00868Z" fill="black"/>
<path d="M8.51309 8.68918C8.06415 8.68918 7.7002 9.05375 7.7002 9.50348C7.7002 9.9532 8.06415 10.3178 8.51309 10.3178H11.4871C11.936 10.3178 12.3 9.9532 12.3 9.50348C12.3 9.05375 11.936 8.68918 11.4871 8.68918H8.51309Z" fill="black"/>
<path fill-rule="evenodd" clip-rule="evenodd" d="M9.99999 0C8.03697 0 6.53096 0.693023 5.55231 2.06999C4.60917 3.397 4.23047 5.25769 4.23047 7.45896C4.23047 9.66323 4.61051 11.6184 5.53429 13.0453C6.49025 14.522 7.98778 15.3658 9.99999 15.3658C12.0122 15.3658 13.5097 14.522 14.4657 13.0453C15.3895 11.6184 15.7695 9.66323 15.7695 7.45896C15.7695 5.25769 15.3908 3.397 14.4477 2.06999C13.469 0.693023 11.963 0 9.99999 0ZM6.78716 2.91961C7.43516 2.00787 8.43727 1.48256 9.99999 1.48256C11.5627 1.48256 12.5648 2.00787 13.2128 2.91961C13.8963 3.88123 14.2627 5.37938 14.2627 7.45896C14.2627 9.53556 13.8976 11.1632 13.1948 12.2488C12.5242 13.2847 11.5136 13.8832 9.99999 13.8832C8.48636 13.8832 7.47582 13.2847 6.80518 12.2488C6.10237 11.1632 5.73729 9.53556 5.73729 7.45896C5.73729 5.37938 6.10371 3.88123 6.78716 2.91961Z" fill="black"/>
<path d="M2.74916 7.9444C2.33277 7.9444 2 8.2958 2 8.72323C2 10.2183 2.28251 12.507 3.42412 14.4492C4.49885 16.2777 6.31034 17.7488 9.18711 17.9817V19.1857C9.18711 19.6354 9.55105 20 10 20C10.4489 20 10.8129 19.6354 10.8129 19.1857V17.9841C13.666 17.7702 15.4835 16.4233 16.5699 14.6366C17.7216 12.7425 18 10.4424 18 8.72323C18 8.2958 17.6672 7.9444 17.2508 7.9444C16.8344 7.9444 16.5017 8.2958 16.5017 8.72323C16.5017 10.3142 16.2363 12.27 15.3034 13.8043C14.4055 15.281 12.8382 16.4562 10 16.4562C7.18926 16.4562 5.61408 15.1877 4.70263 13.637C3.75962 12.0326 3.49832 10.0654 3.49832 8.72323C3.49832 8.2958 3.16555 7.9444 2.74916 7.9444Z" fill="black"/>
</svg>
